:SAMPLES-PER-SECOND 30
:FULLY-SPECIFIED
:DEGREES
428
root  -57.8896 36.851 -13.6541 40.7931 -6.78909 2.63817
RightUpLeg  -78.6571 -21.7843 30.8775
RightLeg  45.0368 -7.79087 -8.58746
RightFoot  -15.0037 -0.461356 -11.2264
RightToes  0.00048216 0.542163 -0.142577
Spine  67.9585 -4.34243 3.60998
Spine1  9.85608 -0.984967 -5.86231
HEad  -35.5644 1.67 -11.9006
LeftShoulder1  6.84651 -23.8178 -18.3545
LeftArm  -73.3787 -80.0197 17.1874
LeftForeArm  7.1389 -10.4756 -2.93577
LeftHand  -0.25398 0.0180481 5.50724
RightShoulder  1.7685 8.59051 7.044
RightArm  -69.6679 62.6304 -17.7828
RightForeArm  -14.2702 5.7631 2.82823
RightHand  0.873056 13.4643 4.76594
LeftUpLeg  -79.8801 21.1486 -29.5421
LeftLeg  40.8501 -5.98645 -5.13873
LeftFoot  -3.14838 -0.429075 6.25015
LeftToes  1.06248e-005 4.65856e-005 -8.18499e-006
429
root  -57.8616 36.8571 -13.6341 40.9231 -6.89716 2.55522
RightUpLeg  -78.6912 -21.7379 30.9487
RightLeg  44.9126 -7.67799 -8.43417
RightFoot  -14.9063 -0.440397 -10.884
RightToes  0.00048216 0.542163 -0.142577
Spine  67.971 -4.35638 3.60089
Spine1  9.73271 -0.891356 -6.13626
HEad  -35.3753 1.60448 -11.9499
LeftShoulder1  7.01665 -24.1111 -18.7253
LeftArm  -73.0872 -79.8491 17.4445
LeftForeArm  7.8712 -10.4898 -3.05002
LeftHand  -0.25398 0.0180481 5.50724
RightShoulder  1.80041 8.6677 7.23403
RightArm  -69.9354 62.7655 -18.1584
RightForeArm  -13.5453 4.92629 2.6399
RightHand  0.937091 13.5551 5.12866
LeftUpLeg  -79.8313 21.007 -29.3107
LeftLeg  40.7559 -5.80665 -4.95666
LeftFoot  -3.3184 -0.412879 6.16715
LeftToes  1.06248e-005 4.65856e-005 -8.18499e-006
430
root  -57.816 36.8437 -13.6197 41.1287 -7.01692 2.4218
RightUpLeg  -78.8115 -21.5584 30.962
RightLeg  44.8925 -7.60972 -8.35779
RightFoot  -14.8014 -0.415147 -10.4091
RightToes  0.00048216 0.542163 -0.142577
Spine  67.8987 -4.38255 3.68722
Spine1  9.62117 -0.759073 -6.48916
HEad  -35.1798 1.48895 -12.1002
LeftShoulder1  7.08694 -24.4665 -18.6413
LeftArm  -73.0269 -79.7135 17.3833
LeftForeArm  8.57642 -10.28 -2.95715
LeftHand  -0.25398 0.0180481 5.50724
RightShoulder  1.84318 8.60248 7.72124
RightArm  -70.3671 63.004 -19.1863
RightForeArm  -13.46 4.09571 2.61293
RightHand  0.948755 13.4145 5.24419
LeftUpLeg  -79.9631 20.9058 -29.1821
LeftLeg  40.7719 -5.71574 -4.87658
LeftFoot  -3.59331 -0.396519 6.17017
LeftToes  1.06248e-005 4.65856e-005 -8.18499e-006
431
root  -57.7523 36.8239 -13.6 41.2743 -7.18484 2.3076
RightUpLeg  -78.8917 -21.3756 30.8578
RightLeg  44.9487 -7.5719 -8.3348
RightFoot  -14.7734 -0.406678 -10.2189
RightToes  0.00048216 0.542163 -0.142577
Spine  67.9036 -4.34137 3.76985
Spine1  9.55077 -0.630038 -6.64712
HEad  -35.0136 1.30314 -12.4547
LeftShoulder1  6.97962 -24.4869 -18.2085
LeftArm  -72.8411 -79.9833 16.5175
LeftForeArm  8.95759 -10.1129 -2.78094
LeftHand  -0.25398 0.0180481 5.50724
RightShoulder  1.8373 8.36189 8.00974
RightArm  -70.7471 63.3672 -20.6477
RightForeArm  -13.7008 3.0093 2.71069
RightHand  0.945419 13.0491 5.34522
LeftUpLeg  -80.0951 20.8761 -29.1821
LeftLeg  40.8705 -5.63278 -4.81819
LeftFoot  -3.94248 -0.381766 6.26638
LeftToes  1.06248e-005 4.65856e-005 -8.18499e-006
432
root  -57.6668 36.8136 -13.5751 41.239 -7.41452 2.32407
RightUpLeg  -78.8984 -21.38 30.6069
RightLeg  45.0464 -7.50316 -8.29118
RightFoot  -14.7901 -0.41015 -10.2805
RightToes  0.00048216 0.542163 -0.142577
Spine  68.0608 -4.34706 3.80202
Spine1  9.57339 -0.581524 -6.70025
HEad  -34.8869 1.05013 -12.8861
LeftShoulder1  6.83444 -24.3711 -17.7627
LeftArm  -72.33 -80.2998 14.8943
LeftForeArm  9.50786 -10.4162 -2.54058
LeftHand  -0.25398 0.0180481 5.50724
RightShoulder  1.78434 8.26853 7.6452
RightArm  -70.8124 63.4216 -21.719
RightForeArm  -13.5219 1.75722 2.70235
RightHand  1.00049 12.7074 5.81241
LeftUpLeg  -80.0145 20.8686 -29.295
LeftLeg  40.954 -5.50782 -4.71786
LeftFoot  -4.24325 -0.370877 6.38587
LeftToes  1.06248e-005 4.65856e-005 -8.18499e-006
